<?xml version="1.0" encoding="UTF-8"?>
<?xml-stylesheet href="https://cdnjs.cloudflare.com/ajax/libs/font-awesome/6.7.2/css/all.min.css" type="text/css"?>
<svg aria-roledescription="flowchart-v2" role="graphics-document document" viewBox="0 0 1343.69921875 2613.6875" style="max-width: 100%;" class="flowchart" xmlns="http://www.w3.org/2000/svg" width="100%" id="graph-355" height="100%" xmlns:xlink="http://www.w3.org/1999/xlink"><style>#graph-355{font-family:"trebuchet ms",verdana,arial,sans-serif;font-size:16px;fill:#333;}@keyframes edge-animation-frame{from{stroke-dashoffset:0;}}@keyframes dash{to{stroke-dashoffset:0;}}#graph-355 .edge-animation-slow{stroke-dasharray:9,5!important;stroke-dashoffset:900;animation:dash 50s linear infinite;stroke-linecap:round;}#graph-355 .edge-animation-fast{stroke-dasharray:9,5!important;stroke-dashoffset:900;animation:dash 20s linear infinite;stroke-linecap:round;}#graph-355 .error-icon{fill:#552222;}#graph-355 .error-text{fill:#552222;stroke:#552222;}#graph-355 .edge-thickness-normal{stroke-width:1px;}#graph-355 .edge-thickness-thick{stroke-width:3.5px;}#graph-355 .edge-pattern-solid{stroke-dasharray:0;}#graph-355 .edge-thickness-invisible{stroke-width:0;fill:none;}#graph-355 .edge-pattern-dashed{stroke-dasharray:3;}#graph-355 .edge-pattern-dotted{stroke-dasharray:2;}#graph-355 .marker{fill:#333333;stroke:#333333;}#graph-355 .marker.cross{stroke:#333333;}#graph-355 svg{font-family:"trebuchet ms",verdana,arial,sans-serif;font-size:16px;}#graph-355 p{margin:0;}#graph-355 .label{font-family:"trebuchet ms",verdana,arial,sans-serif;color:#333;}#graph-355 .cluster-label text{fill:#333;}#graph-355 .cluster-label span{color:#333;}#graph-355 .cluster-label span p{background-color:transparent;}#graph-355 .label text,#graph-355 span{fill:#333;color:#333;}#graph-355 .node rect,#graph-355 .node circle,#graph-355 .node ellipse,#graph-355 .node polygon,#graph-355 .node path{fill:#ECECFF;stroke:#9370DB;stroke-width:1px;}#graph-355 .rough-node .label text,#graph-355 .node .label text,#graph-355 .image-shape .label,#graph-355 .icon-shape .label{text-anchor:middle;}#graph-355 .node .katex path{fill:#000;stroke:#000;stroke-width:1px;}#graph-355 .rough-node .label,#graph-355 .node .label,#graph-355 .image-shape .label,#graph-355 .icon-shape .label{text-align:center;}#graph-355 .node.clickable{cursor:pointer;}#graph-355 .root .anchor path{fill:#333333!important;stroke-width:0;stroke:#333333;}#graph-355 .arrowheadPath{fill:#333333;}#graph-355 .edgePath .path{stroke:#333333;stroke-width:2.0px;}#graph-355 .flowchart-link{stroke:#333333;fill:none;}#graph-355 .edgeLabel{background-color:rgba(232,232,232, 0.8);text-align:center;}#graph-355 .edgeLabel p{background-color:rgba(232,232,232, 0.8);}#graph-355 .edgeLabel rect{opacity:0.5;background-color:rgba(232,232,232, 0.8);fill:rgba(232,232,232, 0.8);}#graph-355 .labelBkg{background-color:rgba(232, 232, 232, 0.5);}#graph-355 .cluster rect{fill:#ffffde;stroke:#aaaa33;stroke-width:1px;}#graph-355 .cluster text{fill:#333;}#graph-355 .cluster span{color:#333;}#graph-355 div.mermaidTooltip{position:absolute;text-align:center;max-width:200px;padding:2px;font-family:"trebuchet ms",verdana,arial,sans-serif;font-size:12px;background:hsl(80, 100%, 96.2745098039%);border:1px solid #aaaa33;border-radius:2px;pointer-events:none;z-index:100;}#graph-355 .flowchartTitleText{text-anchor:middle;font-size:18px;fill:#333;}#graph-355 rect.text{fill:none;stroke-width:0;}#graph-355 .icon-shape,#graph-355 .image-shape{background-color:rgba(232,232,232, 0.8);text-align:center;}#graph-355 .icon-shape p,#graph-355 .image-shape p{background-color:rgba(232,232,232, 0.8);padding:2px;}#graph-355 .icon-shape rect,#graph-355 .image-shape rect{opacity:0.5;background-color:rgba(232,232,232, 0.8);fill:rgba(232,232,232, 0.8);}#graph-355 :root{--mermaid-font-family:"trebuchet ms",verdana,arial,sans-serif;}</style><g><marker orient="auto" markerHeight="8" markerWidth="8" markerUnits="userSpaceOnUse" refY="5" refX="5" viewBox="0 0 10 10" class="marker flowchart-v2" id="graph-355_flowchart-v2-pointEnd"><path style="stroke-width: 1; stroke-dasharray: 1, 0;" class="arrowMarkerPath" d="M 0 0 L 10 5 L 0 10 z"></path></marker><marker orient="auto" markerHeight="8" markerWidth="8" markerUnits="userSpaceOnUse" refY="5" refX="4.5" viewBox="0 0 10 10" class="marker flowchart-v2" id="graph-355_flowchart-v2-pointStart"><path style="stroke-width: 1; stroke-dasharray: 1, 0;" class="arrowMarkerPath" d="M 0 5 L 10 10 L 10 0 z"></path></marker><marker orient="auto" markerHeight="11" markerWidth="11" markerUnits="userSpaceOnUse" refY="5" refX="11" viewBox="0 0 10 10" class="marker flowchart-v2" id="graph-355_flowchart-v2-circleEnd"><circle style="stroke-width: 1; stroke-dasharray: 1, 0;" class="arrowMarkerPath" r="5" cy="5" cx="5"></circle></marker><marker orient="auto" markerHeight="11" markerWidth="11" markerUnits="userSpaceOnUse" refY="5" refX="-1" viewBox="0 0 10 10" class="marker flowchart-v2" id="graph-355_flowchart-v2-circleStart"><circle style="stroke-width: 1; stroke-dasharray: 1, 0;" class="arrowMarkerPath" r="5" cy="5" cx="5"></circle></marker><marker orient="auto" markerHeight="11" markerWidth="11" markerUnits="userSpaceOnUse" refY="5.2" refX="12" viewBox="0 0 11 11" class="marker cross flowchart-v2" id="graph-355_flowchart-v2-crossEnd"><path style="stroke-width: 2; stroke-dasharray: 1, 0;" class="arrowMarkerPath" d="M 1,1 l 9,9 M 10,1 l -9,9"></path></marker><marker orient="auto" markerHeight="11" markerWidth="11" markerUnits="userSpaceOnUse" refY="5.2" refX="-1" viewBox="0 0 11 11" class="marker cross flowchart-v2" id="graph-355_flowchart-v2-crossStart"><path style="stroke-width: 2; stroke-dasharray: 1, 0;" class="arrowMarkerPath" d="M 1,1 l 9,9 M 10,1 l -9,9"></path></marker><g class="root"><g class="clusters"><g data-look="classic" id="subGraph1" class="cluster"><rect height="1098.140625" width="275.515625" y="1418.546875" x="8" style=""></rect><g transform="translate(61.890625, 1418.546875)" class="cluster-label"><foreignObject height="24" width="167.734375"><div style="display: table-cell; white-space: nowrap; line-height: 1.5; max-width: 200px; text-align: center;" xmlns="http://www.w3.org/1999/xhtml"><span class="nodeLabel"><p>Document Management</p></span></div></foreignObject></g></g><g data-look="classic" id="subGraph0" class="cluster"><rect height="1414.890625" width="372.80859375" y="481" x="748.65625" style=""></rect><g transform="translate(856.302734375, 481)" class="cluster-label"><foreignObject height="24" width="157.515625"><div style="display: table-cell; white-space: nowrap; line-height: 1.5; max-width: 200px; text-align: center;" xmlns="http://www.w3.org/1999/xhtml"><span class="nodeLabel"><p>Automated Processing</p></span></div></foreignObject></g></g></g><g class="edgePaths"><path marker-end="url(#graph-355_flowchart-v2-pointEnd)" style="" class="edge-thickness-normal edge-pattern-solid edge-thickness-normal edge-pattern-solid flowchart-link" id="L_Start_AccessSystem_0" d="M1106.344,47L1106.344,51.167C1106.344,55.333,1106.344,63.667,1106.344,71.333C1106.344,79,1106.344,86,1106.344,89.5L1106.344,93"></path><path marker-end="url(#graph-355_flowchart-v2-pointEnd)" style="" class="edge-thickness-normal edge-pattern-solid edge-thickness-normal edge-pattern-solid flowchart-link" id="L_AccessSystem_InitiateRequest_0" d="M1106.344,175L1106.344,179.167C1106.344,183.333,1106.344,191.667,1106.344,199.333C1106.344,207,1106.344,214,1106.344,217.5L1106.344,221"></path><path marker-end="url(#graph-355_flowchart-v2-pointEnd)" style="" class="edge-thickness-normal edge-pattern-solid edge-thickness-normal edge-pattern-solid flowchart-link" id="L_InitiateRequest_FillForm_0" d="M1106.344,303L1106.344,307.167C1106.344,311.333,1106.344,319.667,1106.344,327.333C1106.344,335,1106.344,342,1106.344,345.5L1106.344,349"></path><path marker-end="url(#graph-355_flowchart-v2-pointEnd)" style="" class="edge-thickness-normal edge-pattern-solid edge-thickness-normal edge-pattern-solid flowchart-link" id="L_FillForm_AutoValidate_0" d="M1039.516,417.844L1023.071,424.203C1006.626,430.562,973.737,443.281,957.292,453.807C940.848,464.333,940.848,472.667,940.918,480.417C940.988,488.167,941.129,495.334,941.199,498.917L941.269,502.501"></path><path marker-end="url(#graph-355_flowchart-v2-pointEnd)" style="" class="edge-thickness-normal edge-pattern-solid edge-thickness-normal edge-pattern-solid flowchart-link" id="L_AutoValidate_HighlightErrors_0" d="M978.726,659.809L986.636,672.122C994.546,684.435,1010.367,709.061,1039.36,728.661C1068.353,748.261,1110.519,762.834,1131.601,770.121L1152.684,777.407"></path><path marker-end="url(#graph-355_flowchart-v2-pointEnd)" style="" class="edge-thickness-normal edge-pattern-solid edge-thickness-normal edge-pattern-solid flowchart-link" id="L_HighlightErrors_FillForm_0" d="M1246.082,770.688L1246.082,764.521C1246.082,758.354,1246.082,746.021,1246.082,717.797C1246.082,689.573,1246.082,645.458,1246.082,603.344C1246.082,561.229,1246.082,521.115,1246.082,496.891C1246.082,472.667,1246.082,464.333,1234.536,454.879C1222.991,445.424,1199.9,434.849,1188.354,429.561L1176.809,424.273"></path><path marker-end="url(#graph-355_flowchart-v2-pointEnd)" style="" class="edge-thickness-normal edge-pattern-solid edge-thickness-normal edge-pattern-solid flowchart-link" id="L_AutoValidate_SubmitForm_0" d="M935.082,690.922L934.492,698.05C933.901,705.177,932.72,719.432,932.13,732.06C931.539,744.688,931.539,755.688,931.539,761.188L931.539,766.688"></path><path marker-end="url(#graph-355_flowchart-v2-pointEnd)" style="" class="edge-thickness-normal edge-pattern-solid edge-thickness-normal edge-pattern-solid flowchart-link" id="L_SubmitForm_SendNotification_0" d="M931.539,848.688L931.539,852.854C931.539,857.021,931.539,865.354,931.539,873.021C931.539,880.688,931.539,887.688,931.539,891.188L931.539,894.688"></path><path marker-end="url(#graph-355_flowchart-v2-pointEnd)" style="" class="edge-thickness-normal edge-pattern-solid edge-thickness-normal edge-pattern-solid flowchart-link" id="L_SendNotification_MonitorStatus_0" d="M931.539,976.688L931.539,980.854C931.539,985.021,931.539,993.354,931.539,1001.021C931.539,1008.688,931.539,1015.688,931.539,1019.188L931.539,1022.688"></path><path marker-end="url(#graph-355_flowchart-v2-pointEnd)" style="" class="edge-thickness-normal edge-pattern-solid edge-thickness-normal edge-pattern-solid flowchart-link" id="L_MonitorStatus_CheckStatus_0" d="M837.734,1102.545L826.221,1107.069C814.708,1111.593,791.682,1120.64,732.709,1141.072C673.736,1161.504,578.817,1193.321,531.357,1209.229L483.897,1225.137"></path><path marker-end="url(#graph-355_flowchart-v2-pointEnd)" style="" class="edge-thickness-normal edge-pattern-solid edge-thickness-normal edge-pattern-solid flowchart-link" id="L_CheckStatus_WaitPeriod_0" d="M468.484,1285.446L495.562,1301.463C522.64,1317.48,576.797,1349.513,603.875,1371.697C630.953,1393.88,630.953,1406.214,630.953,1415.88C630.953,1425.547,630.953,1432.547,630.953,1436.047L630.953,1439.547"></path><path marker-end="url(#graph-355_flowchart-v2-pointEnd)" style="" class="edge-thickness-normal edge-pattern-solid edge-thickness-normal edge-pattern-solid flowchart-link" id="L_WaitPeriod_ReminderCheck_0" d="M713.656,1505.698L737.978,1512.506C762.299,1519.314,810.943,1532.93,840.463,1548.11C869.984,1563.289,880.382,1580.032,885.581,1588.403L890.78,1596.774"></path><path marker-end="url(#graph-355_flowchart-v2-pointEnd)" style="" class="edge-thickness-normal edge-pattern-solid edge-thickness-normal edge-pattern-solid flowchart-link" id="L_ReminderCheck_SendReminder_0" d="M921.016,1719.391L920.932,1725.474C920.849,1731.557,920.682,1743.724,924.62,1755.432C928.558,1767.139,936.6,1778.388,940.621,1784.012L944.642,1789.637"></path><path marker-end="url(#graph-355_flowchart-v2-pointEnd)" style="" class="edge-thickness-normal edge-pattern-solid edge-thickness-normal edge-pattern-solid flowchart-link" id="L_SendReminder_MonitorStatus_0" d="M1014.585,1792.891L1020.868,1786.724C1027.151,1780.557,1039.716,1768.224,1045.999,1743.612C1052.281,1719,1052.281,1682.109,1052.281,1647.219C1052.281,1612.328,1052.281,1579.438,1052.281,1552.326C1052.281,1525.214,1052.281,1503.88,1052.281,1482.547C1052.281,1461.214,1052.281,1439.88,1052.281,1423.047C1052.281,1406.214,1052.281,1393.88,1052.281,1365.725C1052.281,1337.57,1052.281,1293.594,1052.281,1251.617C1052.281,1209.641,1052.281,1169.664,1045.009,1145.821C1037.738,1121.979,1023.194,1114.27,1015.922,1110.415L1008.651,1106.561"></path><path marker-end="url(#graph-355_flowchart-v2-pointEnd)" style="" class="edge-thickness-normal edge-pattern-solid edge-thickness-normal edge-pattern-solid flowchart-link" id="L_ReminderCheck_MonitorStatus_0" d="M927.795,1578.826L928.248,1573.446C928.702,1568.066,929.609,1557.307,930.062,1541.26C930.516,1525.214,930.516,1503.88,930.516,1482.547C930.516,1461.214,930.516,1439.88,930.516,1423.047C930.516,1406.214,930.516,1393.88,930.516,1365.725C930.516,1337.57,930.516,1293.594,930.516,1251.617C930.516,1209.641,930.516,1169.664,930.572,1146.176C930.628,1122.687,930.74,1115.687,930.795,1112.187L930.851,1108.687"></path><path marker-end="url(#graph-355_flowchart-v2-pointEnd)" style="" class="edge-thickness-normal edge-pattern-solid edge-thickness-normal edge-pattern-solid flowchart-link" id="L_CheckStatus_NotifyRejection_0" d="M408.883,1345.047L408.799,1351.13C408.716,1357.214,408.549,1369.38,408.466,1381.63C408.383,1393.88,408.383,1406.214,408.383,1415.88C408.383,1425.547,408.383,1432.547,408.383,1436.047L408.383,1439.547"></path><path marker-end="url(#graph-355_flowchart-v2-pointEnd)" style="" class="edge-thickness-normal edge-pattern-solid edge-thickness-normal edge-pattern-solid flowchart-link" id="L_NotifyRejection_ReviseForm_0" d="M408.383,1521.547L408.383,1525.714C408.383,1529.88,408.383,1538.214,408.383,1551.659C408.383,1565.104,408.383,1583.661,408.383,1592.94L408.383,1602.219"></path><path marker-end="url(#graph-355_flowchart-v2-pointEnd)" style="" class="edge-thickness-normal edge-pattern-solid edge-thickness-normal edge-pattern-solid flowchart-link" id="L_ReviseForm_AutoValidate_0" d="M486.508,1624.947L536.866,1611.88C587.224,1598.814,687.94,1572.68,738.298,1548.947C788.656,1525.214,788.656,1503.88,788.656,1482.547C788.656,1461.214,788.656,1439.88,788.656,1423.047C788.656,1406.214,788.656,1393.88,788.656,1365.725C788.656,1337.57,788.656,1293.594,788.656,1251.617C788.656,1209.641,788.656,1169.664,788.656,1139.009C788.656,1108.354,788.656,1087.021,788.656,1065.688C788.656,1044.354,788.656,1023.021,788.656,1001.688C788.656,980.354,788.656,959.021,788.656,937.688C788.656,916.354,788.656,895.021,788.656,873.688C788.656,852.354,788.656,831.021,788.656,807.688C788.656,784.354,788.656,759.021,805.1,732.206C821.544,705.391,854.431,677.095,870.875,662.947L887.318,648.799"></path><path marker-end="url(#graph-355_flowchart-v2-pointEnd)" style="" class="edge-thickness-normal edge-pattern-solid edge-thickness-normal edge-pattern-solid flowchart-link" id="L_CheckStatus_GenerateApproval_0" d="M345.695,1281.859L312.372,1298.474C279.05,1315.089,212.404,1348.318,179.081,1371.099C145.758,1393.88,145.758,1406.214,145.758,1415.88C145.758,1425.547,145.758,1432.547,145.758,1436.047L145.758,1439.547"></path><path marker-end="url(#graph-355_flowchart-v2-pointEnd)" style="" class="edge-thickness-normal edge-pattern-solid edge-thickness-normal edge-pattern-solid flowchart-link" id="L_GenerateApproval_DistributeDigital_0" d="M145.758,1521.547L145.758,1525.714C145.758,1529.88,145.758,1538.214,145.758,1551.659C145.758,1565.104,145.758,1583.661,145.758,1592.94L145.758,1602.219"></path><path marker-end="url(#graph-355_flowchart-v2-pointEnd)" style="" class="edge-thickness-normal edge-pattern-solid edge-thickness-normal edge-pattern-solid flowchart-link" id="L_DistributeDigital_StoreDocument_0" d="M145.758,1684.219L145.758,1696.164C145.758,1708.109,145.758,1732,145.758,1749.445C145.758,1766.891,145.758,1777.891,145.758,1783.391L145.758,1788.891"></path><path marker-end="url(#graph-355_flowchart-v2-pointEnd)" style="" class="edge-thickness-normal edge-pattern-solid edge-thickness-normal edge-pattern-solid flowchart-link" id="L_StoreDocument_TrackExpiry_0" d="M145.758,1870.891L145.758,1875.057C145.758,1879.224,145.758,1887.557,145.758,1895.891C145.758,1904.224,145.758,1912.557,145.758,1920.224C145.758,1927.891,145.758,1934.891,145.758,1938.391L145.758,1941.891"></path><path marker-end="url(#graph-355_flowchart-v2-pointEnd)" style="" class="edge-thickness-normal edge-pattern-solid edge-thickness-normal edge-pattern-solid flowchart-link" id="L_TrackExpiry_ExpiryCheck_0" d="M181.637,2023.891L185.47,2028.057C189.304,2032.224,196.97,2040.557,235.099,2057.18C273.228,2073.802,341.82,2098.713,376.115,2111.168L410.411,2123.624"></path><path marker-end="url(#graph-355_flowchart-v2-pointEnd)" style="" class="edge-thickness-normal edge-pattern-solid edge-thickness-normal edge-pattern-solid flowchart-link" id="L_ExpiryCheck_ContinueMonitoring_0" d="M435.683,2183.101L427.552,2194.032C419.421,2204.963,403.16,2226.825,395.029,2243.256C386.898,2259.688,386.898,2270.688,386.898,2276.188L386.898,2281.688"></path><path marker-end="url(#graph-355_flowchart-v2-pointEnd)" style="" class="edge-thickness-normal edge-pattern-solid edge-thickness-normal edge-pattern-solid flowchart-link" id="L_ContinueMonitoring_TrackExpiry_0" d="M319.031,2307.496L280.339,2297.694C241.647,2287.893,164.263,2268.29,125.571,2240.839C86.879,2213.388,86.879,2178.089,86.879,2144.789C86.879,2111.49,86.879,2080.19,90.261,2060.864C93.643,2041.539,100.406,2034.186,103.788,2030.51L107.17,2026.834"></path><path marker-end="url(#graph-355_flowchart-v2-pointEnd)" style="" class="edge-thickness-normal edge-pattern-solid edge-thickness-normal edge-pattern-solid flowchart-link" id="L_ExpiryCheck_NotifyExpiry_0" d="M501.797,2175.16L516.049,2187.414C530.3,2199.669,558.802,2224.178,573.053,2241.933C587.305,2259.688,587.305,2270.688,587.305,2276.188L587.305,2281.688"></path><path marker-end="url(#graph-355_flowchart-v2-pointEnd)" style="" class="edge-thickness-normal edge-pattern-solid edge-thickness-normal edge-pattern-solid flowchart-link" id="L_NotifyExpiry_ArchiveDocument_0" d="M504.766,2336.651L444.931,2345.324C385.096,2353.997,265.427,2371.342,205.592,2383.515C145.758,2395.688,145.758,2402.688,145.758,2406.188L145.758,2409.688"></path><path marker-end="url(#graph-355_flowchart-v2-pointEnd)" style="" class="edge-thickness-normal edge-pattern-solid edge-thickness-normal edge-pattern-solid flowchart-link" id="L_ArchiveDocument_End_0" d="M145.758,2491.688L145.758,2495.854C145.758,2500.021,145.758,2508.354,145.758,2516.688C145.758,2525.021,145.758,2533.354,145.758,2541.021C145.758,2548.688,145.758,2555.688,145.758,2559.188L145.758,2562.688"></path></g><g class="edgeLabels"><g class="edgeLabel"><g transform="translate(0, 0)" class="label"><foreignObject height="0" width="0"><div style="display: table-cell; white-space: nowrap; line-height: 1.5; max-width: 200px; text-align: center;" class="labelBkg" xmlns="http://www.w3.org/1999/xhtml"><span class="edgeLabel"></span></div></foreignObject></g></g><g class="edgeLabel"><g transform="translate(0, 0)" class="label"><foreignObject height="0" width="0"><div style="display: table-cell; white-space: nowrap; line-height: 1.5; max-width: 200px; text-align: center;" class="labelBkg" xmlns="http://www.w3.org/1999/xhtml"><span class="edgeLabel"></span></div></foreignObject></g></g><g class="edgeLabel"><g transform="translate(0, 0)" class="label"><foreignObject height="0" width="0"><div style="display: table-cell; white-space: nowrap; line-height: 1.5; max-width: 200px; text-align: center;" class="labelBkg" xmlns="http://www.w3.org/1999/xhtml"><span class="edgeLabel"></span></div></foreignObject></g></g><g class="edgeLabel"><g transform="translate(0, 0)" class="label"><foreignObject height="0" width="0"><div style="display: table-cell; white-space: nowrap; line-height: 1.5; max-width: 200px; text-align: center;" class="labelBkg" xmlns="http://www.w3.org/1999/xhtml"><span class="edgeLabel"></span></div></foreignObject></g></g><g transform="translate(1026.1875, 733.6875)" class="edgeLabel"><g transform="translate(-40.2109375, -12)" class="label"><foreignObject height="24" width="80.421875"><div style="display: table-cell; white-space: nowrap; line-height: 1.5; max-width: 200px; text-align: center;" class="labelBkg" xmlns="http://www.w3.org/1999/xhtml"><span class="edgeLabel"><p>Incomplete</p></span></div></foreignObject></g></g><g class="edgeLabel"><g transform="translate(0, 0)" class="label"><foreignObject height="0" width="0"><div style="display: table-cell; white-space: nowrap; line-height: 1.5; max-width: 200px; text-align: center;" class="labelBkg" xmlns="http://www.w3.org/1999/xhtml"><span class="edgeLabel"></span></div></foreignObject></g></g><g transform="translate(931.5390625, 733.6875)" class="edgeLabel"><g transform="translate(-34.4375, -12)" class="label"><foreignObject height="24" width="68.875"><div style="display: table-cell; white-space: nowrap; line-height: 1.5; max-width: 200px; text-align: center;" class="labelBkg" xmlns="http://www.w3.org/1999/xhtml"><span class="edgeLabel"><p>Complete</p></span></div></foreignObject></g></g><g class="edgeLabel"><g transform="translate(0, 0)" class="label"><foreignObject height="0" width="0"><div style="display: table-cell; white-space: nowrap; line-height: 1.5; max-width: 200px; text-align: center;" class="labelBkg" xmlns="http://www.w3.org/1999/xhtml"><span class="edgeLabel"></span></div></foreignObject></g></g><g class="edgeLabel"><g transform="translate(0, 0)" class="label"><foreignObject height="0" width="0"><div style="display: table-cell; white-space: nowrap; line-height: 1.5; max-width: 200px; text-align: center;" class="labelBkg" xmlns="http://www.w3.org/1999/xhtml"><span class="edgeLabel"></span></div></foreignObject></g></g><g class="edgeLabel"><g transform="translate(0, 0)" class="label"><foreignObject height="0" width="0"><div style="display: table-cell; white-space: nowrap; line-height: 1.5; max-width: 200px; text-align: center;" class="labelBkg" xmlns="http://www.w3.org/1999/xhtml"><span class="edgeLabel"></span></div></foreignObject></g></g><g transform="translate(630.953125, 1381.546875)" class="edgeLabel"><g transform="translate(-27.9453125, -12)" class="label"><foreignObject height="24" width="55.890625"><div style="display: table-cell; white-space: nowrap; line-height: 1.5; max-width: 200px; text-align: center;" class="labelBkg" xmlns="http://www.w3.org/1999/xhtml"><span class="edgeLabel"><p>Pending</p></span></div></foreignObject></g></g><g class="edgeLabel"><g transform="translate(0, 0)" class="label"><foreignObject height="0" width="0"><div style="display: table-cell; white-space: nowrap; line-height: 1.5; max-width: 200px; text-align: center;" class="labelBkg" xmlns="http://www.w3.org/1999/xhtml"><span class="edgeLabel"></span></div></foreignObject></g></g><g transform="translate(920.515625, 1755.890625)" class="edgeLabel"><g transform="translate(-11.328125, -12)" class="label"><foreignObject height="24" width="22.65625"><div style="display: table-cell; white-space: nowrap; line-height: 1.5; max-width: 200px; text-align: center;" class="labelBkg" xmlns="http://www.w3.org/1999/xhtml"><span class="edgeLabel"><p>Yes</p></span></div></foreignObject></g></g><g class="edgeLabel"><g transform="translate(0, 0)" class="label"><foreignObject height="0" width="0"><div style="display: table-cell; white-space: nowrap; line-height: 1.5; max-width: 200px; text-align: center;" class="labelBkg" xmlns="http://www.w3.org/1999/xhtml"><span class="edgeLabel"></span></div></foreignObject></g></g><g transform="translate(930.515625, 1381.546875)" class="edgeLabel"><g transform="translate(-9.3984375, -12)" class="label"><foreignObject height="24" width="18.796875"><div style="display: table-cell; white-space: nowrap; line-height: 1.5; max-width: 200px; text-align: center;" class="labelBkg" xmlns="http://www.w3.org/1999/xhtml"><span class="edgeLabel"><p>No</p></span></div></foreignObject></g></g><g transform="translate(408.3828125, 1381.546875)" class="edgeLabel"><g transform="translate(-31.9453125, -12)" class="label"><foreignObject height="24" width="63.890625"><div style="display: table-cell; white-space: nowrap; line-height: 1.5; max-width: 200px; text-align: center;" class="labelBkg" xmlns="http://www.w3.org/1999/xhtml"><span class="edgeLabel"><p>Rejected</p></span></div></foreignObject></g></g><g class="edgeLabel"><g transform="translate(0, 0)" class="label"><foreignObject height="0" width="0"><div style="display: table-cell; white-space: nowrap; line-height: 1.5; max-width: 200px; text-align: center;" class="labelBkg" xmlns="http://www.w3.org/1999/xhtml"><span class="edgeLabel"></span></div></foreignObject></g></g><g class="edgeLabel"><g transform="translate(0, 0)" class="label"><foreignObject height="0" width="0"><div style="display: table-cell; white-space: nowrap; line-height: 1.5; max-width: 200px; text-align: center;" class="labelBkg" xmlns="http://www.w3.org/1999/xhtml"><span class="edgeLabel"></span></div></foreignObject></g></g><g transform="translate(145.7578125, 1381.546875)" class="edgeLabel"><g transform="translate(-33.7734375, -12)" class="label"><foreignObject height="24" width="67.546875"><div style="display: table-cell; white-space: nowrap; line-height: 1.5; max-width: 200px; text-align: center;" class="labelBkg" xmlns="http://www.w3.org/1999/xhtml"><span class="edgeLabel"><p>Approved</p></span></div></foreignObject></g></g><g class="edgeLabel"><g transform="translate(0, 0)" class="label"><foreignObject height="0" width="0"><div style="display: table-cell; white-space: nowrap; line-height: 1.5; max-width: 200px; text-align: center;" class="labelBkg" xmlns="http://www.w3.org/1999/xhtml"><span class="edgeLabel"></span></div></foreignObject></g></g><g class="edgeLabel"><g transform="translate(0, 0)" class="label"><foreignObject height="0" width="0"><div style="display: table-cell; white-space: nowrap; line-height: 1.5; max-width: 200px; text-align: center;" class="labelBkg" xmlns="http://www.w3.org/1999/xhtml"><span class="edgeLabel"></span></div></foreignObject></g></g><g class="edgeLabel"><g transform="translate(0, 0)" class="label"><foreignObject height="0" width="0"><div style="display: table-cell; white-space: nowrap; line-height: 1.5; max-width: 200px; text-align: center;" class="labelBkg" xmlns="http://www.w3.org/1999/xhtml"><span class="edgeLabel"></span></div></foreignObject></g></g><g class="edgeLabel"><g transform="translate(0, 0)" class="label"><foreignObject height="0" width="0"><div style="display: table-cell; white-space: nowrap; line-height: 1.5; max-width: 200px; text-align: center;" class="labelBkg" xmlns="http://www.w3.org/1999/xhtml"><span class="edgeLabel"></span></div></foreignObject></g></g><g transform="translate(386.8984375, 2248.6875)" class="edgeLabel"><g transform="translate(-9.3984375, -12)" class="label"><foreignObject height="24" width="18.796875"><div style="display: table-cell; white-space: nowrap; line-height: 1.5; max-width: 200px; text-align: center;" class="labelBkg" xmlns="http://www.w3.org/1999/xhtml"><span class="edgeLabel"><p>No</p></span></div></foreignObject></g></g><g class="edgeLabel"><g transform="translate(0, 0)" class="label"><foreignObject height="0" width="0"><div style="display: table-cell; white-space: nowrap; line-height: 1.5; max-width: 200px; text-align: center;" class="labelBkg" xmlns="http://www.w3.org/1999/xhtml"><span class="edgeLabel"></span></div></foreignObject></g></g><g transform="translate(587.3046875, 2248.6875)" class="edgeLabel"><g transform="translate(-11.328125, -12)" class="label"><foreignObject height="24" width="22.65625"><div style="display: table-cell; white-space: nowrap; line-height: 1.5; max-width: 200px; text-align: center;" class="labelBkg" xmlns="http://www.w3.org/1999/xhtml"><span class="edgeLabel"><p>Yes</p></span></div></foreignObject></g></g><g class="edgeLabel"><g transform="translate(0, 0)" class="label"><foreignObject height="0" width="0"><div style="display: table-cell; white-space: nowrap; line-height: 1.5; max-width: 200px; text-align: center;" class="labelBkg" xmlns="http://www.w3.org/1999/xhtml"><span class="edgeLabel"></span></div></foreignObject></g></g><g class="edgeLabel"><g transform="translate(0, 0)" class="label"><foreignObject height="0" width="0"><div style="display: table-cell; white-space: nowrap; line-height: 1.5; max-width: 200px; text-align: center;" class="labelBkg" xmlns="http://www.w3.org/1999/xhtml"><span class="edgeLabel"></span></div></foreignObject></g></g></g><g class="nodes"><g transform="translate(1106.34375, 27.5)" id="flowchart-Start-0" class="node default"><rect height="39" width="59.765625" y="-19.5" x="-29.8828125" ry="19.5" rx="19.5" style="" class="basic label-container"></rect><g transform="translate(-17.5078125, -12)" style="" class="label"><rect></rect><foreignObject height="24" width="35.015625"><div style="display: table-cell; white-space: nowrap; line-height: 1.5; max-width: 200px; text-align: center;" xmlns="http://www.w3.org/1999/xhtml"><span class="nodeLabel"><p>Start</p></span></div></foreignObject></g></g><g transform="translate(1106.34375, 136)" id="flowchart-AccessSystem-1" class="node default"><rect height="78" width="198.265625" y="-39" x="-99.1328125" style="" class="basic label-container"></rect><g transform="translate(-69.1328125, -24)" style="" class="label"><rect></rect><foreignObject height="48" width="138.265625"><div style="display: table-cell; white-space: nowrap; line-height: 1.5; max-width: 200px; text-align: center;" xmlns="http://www.w3.org/1999/xhtml"><span class="nodeLabel"><p>Access PTW<br/>Automation System</p></span></div></foreignObject></g></g><g transform="translate(1106.34375, 264)" id="flowchart-InitiateRequest-3" class="node default"><rect height="78" width="148.8125" y="-39" x="-74.40625" style="" class="basic label-container"></rect><g transform="translate(-44.40625, -24)" style="" class="label"><rect></rect><foreignObject height="48" width="88.8125"><div style="display: table-cell; white-space: nowrap; line-height: 1.5; max-width: 200px; text-align: center;" xmlns="http://www.w3.org/1999/xhtml"><span class="nodeLabel"><p>Initiate PTW<br/>Request</p></span></div></foreignObject></g></g><g transform="translate(1106.34375, 392)" id="flowchart-FillForm-5" class="node default"><rect height="78" width="133.65625" y="-39" x="-66.828125" style="" class="basic label-container"></rect><g transform="translate(-36.828125, -24)" style="" class="label"><rect></rect><foreignObject height="48" width="73.65625"><div style="display: table-cell; white-space: nowrap; line-height: 1.5; max-width: 200px; text-align: center;" xmlns="http://www.w3.org/1999/xhtml"><span class="nodeLabel"><p>Fill Digital<br/>PTW Form</p></span></div></foreignObject></g></g><g transform="translate(940.84765625, 601.34375)" id="flowchart-AutoValidate-7" class="node default"><polygon transform="translate(-95.34375,95.34375)" class="label-container" points="95.34375,0 190.6875,-95.34375 95.34375,-190.6875 0,-95.34375"></polygon><g transform="translate(-56.34375, -24)" style="" class="label"><rect></rect><foreignObject height="48" width="112.6875"><div style="display: table-cell; white-space: nowrap; line-height: 1.5; max-width: 200px; text-align: center;" xmlns="http://www.w3.org/1999/xhtml"><span class="nodeLabel"><p>Automated<br/>Form Validation</p></span></div></foreignObject></g></g><g transform="translate(1246.08203125, 809.6875)" id="flowchart-HighlightErrors-9" class="node default"><rect height="78" width="179.234375" y="-39" x="-89.6171875" style="" class="basic label-container"></rect><g transform="translate(-59.6171875, -24)" style="" class="label"><rect></rect><foreignObject height="48" width="119.234375"><div style="display: table-cell; white-space: nowrap; line-height: 1.5; max-width: 200px; text-align: center;" xmlns="http://www.w3.org/1999/xhtml"><span class="nodeLabel"><p>Highlight Missing<br/>Fields</p></span></div></foreignObject></g></g><g transform="translate(931.5390625, 809.6875)" id="flowchart-SubmitForm-13" class="node default"><rect height="78" width="213.71875" y="-39" x="-106.859375" style="" class="basic label-container"></rect><g transform="translate(-76.859375, -24)" style="" class="label"><rect></rect><foreignObject height="48" width="153.71875"><div style="display: table-cell; white-space: nowrap; line-height: 1.5; max-width: 200px; text-align: center;" xmlns="http://www.w3.org/1999/xhtml"><span class="nodeLabel"><p>Automatically Submit<br/>to Approver</p></span></div></foreignObject></g></g><g transform="translate(931.5390625, 937.6875)" id="flowchart-SendNotification-15" class="node default"><rect height="78" width="183.640625" y="-39" x="-91.8203125" style="" class="basic label-container"></rect><g transform="translate(-61.8203125, -24)" style="" class="label"><rect></rect><foreignObject height="48" width="123.640625"><div style="display: table-cell; white-space: nowrap; line-height: 1.5; max-width: 200px; text-align: center;" xmlns="http://www.w3.org/1999/xhtml"><span class="nodeLabel"><p>Send Notification<br/>to Approver</p></span></div></foreignObject></g></g><g transform="translate(931.5390625, 1065.6875)" id="flowchart-MonitorStatus-17" class="node default"><rect height="78" width="187.609375" y="-39" x="-93.8046875" style="" class="basic label-container"></rect><g transform="translate(-63.8046875, -24)" style="" class="label"><rect></rect><foreignObject height="48" width="127.609375"><div style="display: table-cell; white-space: nowrap; line-height: 1.5; max-width: 200px; text-align: center;" xmlns="http://www.w3.org/1999/xhtml"><span class="nodeLabel"><p>Automated Status<br/>Monitoring</p></span></div></foreignObject></g></g><g transform="translate(408.3828125, 1249.6171875)" id="flowchart-CheckStatus-19" class="node default"><polygon transform="translate(-94.9296875,94.9296875)" class="label-container" points="94.9296875,0 189.859375,-94.9296875 94.9296875,-189.859375 0,-94.9296875"></polygon><g transform="translate(-55.9296875, -24)" style="" class="label"><rect></rect><foreignObject height="48" width="111.859375"><div style="display: table-cell; white-space: nowrap; line-height: 1.5; max-width: 200px; text-align: center;" xmlns="http://www.w3.org/1999/xhtml"><span class="nodeLabel"><p>Check<br/>Approval Status</p></span></div></foreignObject></g></g><g transform="translate(630.953125, 1482.546875)" id="flowchart-WaitPeriod-21" class="node default"><rect height="78" width="165.40625" y="-39" x="-82.703125" style="" class="basic label-container"></rect><g transform="translate(-52.703125, -24)" style="" class="label"><rect></rect><foreignObject height="48" width="105.40625"><div style="display: table-cell; white-space: nowrap; line-height: 1.5; max-width: 200px; text-align: center;" xmlns="http://www.w3.org/1999/xhtml"><span class="nodeLabel"><p>Wait for<br/>Defined Period</p></span></div></foreignObject></g></g><g transform="translate(920.515625, 1645.21875)" id="flowchart-ReminderCheck-23" class="node default"><polygon transform="translate(-73.671875,73.671875)" class="label-container" points="73.671875,0 147.34375,-73.671875 73.671875,-147.34375 0,-73.671875"></polygon><g transform="translate(-34.671875, -24)" style="" class="label"><rect></rect><foreignObject height="48" width="69.34375"><div style="display: table-cell; white-space: nowrap; line-height: 1.5; max-width: 200px; text-align: center;" xmlns="http://www.w3.org/1999/xhtml"><span class="nodeLabel"><p>Reminder<br/>Required?</p></span></div></foreignObject></g></g><g transform="translate(974.8515625, 1831.890625)" id="flowchart-SendReminder-25" class="node default"><rect height="78" width="166.734375" y="-39" x="-83.3671875" style="" class="basic label-container"></rect><g transform="translate(-53.3671875, -24)" style="" class="label"><rect></rect><foreignObject height="48" width="106.734375"><div style="display: table-cell; white-space: nowrap; line-height: 1.5; max-width: 200px; text-align: center;" xmlns="http://www.w3.org/1999/xhtml"><span class="nodeLabel"><p>Send Reminder<br/>to Approver</p></span></div></foreignObject></g></g><g transform="translate(408.3828125, 1482.546875)" id="flowchart-NotifyRejection-31" class="node default"><rect height="78" width="179.734375" y="-39" x="-89.8671875" style="" class="basic label-container"></rect><g transform="translate(-59.8671875, -24)" style="" class="label"><rect></rect><foreignObject height="48" width="119.734375"><div style="display: table-cell; white-space: nowrap; line-height: 1.5; max-width: 200px; text-align: center;" xmlns="http://www.w3.org/1999/xhtml"><span class="nodeLabel"><p>Notify Requestor<br/>of Rejection</p></span></div></foreignObject></g></g><g transform="translate(408.3828125, 1645.21875)" id="flowchart-ReviseForm-33" class="node default"><rect height="78" width="156.25" y="-39" x="-78.125" style="" class="basic label-container"></rect><g transform="translate(-48.125, -24)" style="" class="label"><rect></rect><foreignObject height="48" width="96.25"><div style="display: table-cell; white-space: nowrap; line-height: 1.5; max-width: 200px; text-align: center;" xmlns="http://www.w3.org/1999/xhtml"><span class="nodeLabel"><p>Revise Digital<br/>PTW Form</p></span></div></foreignObject></g></g><g transform="translate(145.7578125, 1482.546875)" id="flowchart-GenerateApproval-37" class="node default"><rect height="78" width="198.203125" y="-39" x="-99.1015625" style="" class="basic label-container"></rect><g transform="translate(-69.1015625, -24)" style="" class="label"><rect></rect><foreignObject height="48" width="138.203125"><div style="display: table-cell; white-space: nowrap; line-height: 1.5; max-width: 200px; text-align: center;" xmlns="http://www.w3.org/1999/xhtml"><span class="nodeLabel"><p>Generate Approved<br/>PTW Document</p></span></div></foreignObject></g></g><g transform="translate(145.7578125, 1645.21875)" id="flowchart-DistributeDigital-39" class="node default"><rect height="78" width="181.96875" y="-39" x="-90.984375" style="" class="basic label-container"></rect><g transform="translate(-60.984375, -24)" style="" class="label"><rect></rect><foreignObject height="48" width="121.96875"><div style="display: table-cell; white-space: nowrap; line-height: 1.5; max-width: 200px; text-align: center;" xmlns="http://www.w3.org/1999/xhtml"><span class="nodeLabel"><p>Distribute Digital<br/>PTW to Team</p></span></div></foreignObject></g></g><g transform="translate(145.7578125, 1831.890625)" id="flowchart-StoreDocument-41" class="node default"><rect height="78" width="205.515625" y="-39" x="-102.7578125" style="" class="basic label-container"></rect><g transform="translate(-72.7578125, -24)" style="" class="label"><rect></rect><foreignObject height="48" width="145.515625"><div style="display: table-cell; white-space: nowrap; line-height: 1.5; max-width: 200px; text-align: center;" xmlns="http://www.w3.org/1999/xhtml"><span class="nodeLabel"><p>Automatically Store<br/>in Document System</p></span></div></foreignObject></g></g><g transform="translate(145.7578125, 1984.890625)" id="flowchart-TrackExpiry-43" class="node default"><rect height="78" width="142.28125" y="-39" x="-71.140625" style="" class="basic label-container"></rect><g transform="translate(-41.140625, -24)" style="" class="label"><rect></rect><foreignObject height="48" width="82.28125"><div style="display: table-cell; white-space: nowrap; line-height: 1.5; max-width: 200px; text-align: center;" xmlns="http://www.w3.org/1999/xhtml"><span class="nodeLabel"><p>Track PTW<br/>Expiry Date</p></span></div></foreignObject></g></g><g transform="translate(464.26953125, 2142.7890625)" id="flowchart-ExpiryCheck-45" class="node default"><polygon transform="translate(-68.8984375,68.8984375)" class="label-container" points="68.8984375,0 137.796875,-68.8984375 68.8984375,-137.796875 0,-68.8984375"></polygon><g transform="translate(-29.8984375, -24)" style="" class="label"><rect></rect><foreignObject height="48" width="59.796875"><div style="display: table-cell; white-space: nowrap; line-height: 1.5; max-width: 200px; text-align: center;" xmlns="http://www.w3.org/1999/xhtml"><span class="nodeLabel"><p>PTW<br/>Expired?</p></span></div></foreignObject></g></g><g transform="translate(386.8984375, 2324.6875)" id="flowchart-ContinueMonitoring-47" class="node default"><rect height="78" width="135.734375" y="-39" x="-67.8671875" style="" class="basic label-container"></rect><g transform="translate(-37.8671875, -24)" style="" class="label"><rect></rect><foreignObject height="48" width="75.734375"><div style="display: table-cell; white-space: nowrap; line-height: 1.5; max-width: 200px; text-align: center;" xmlns="http://www.w3.org/1999/xhtml"><span class="nodeLabel"><p>Continue<br/>Monitoring</p></span></div></foreignObject></g></g><g transform="translate(587.3046875, 2324.6875)" id="flowchart-NotifyExpiry-51" class="node default"><rect height="78" width="165.078125" y="-39" x="-82.5390625" style="" class="basic label-container"></rect><g transform="translate(-52.5390625, -24)" style="" class="label"><rect></rect><foreignObject height="48" width="105.078125"><div style="display: table-cell; white-space: nowrap; line-height: 1.5; max-width: 200px; text-align: center;" xmlns="http://www.w3.org/1999/xhtml"><span class="nodeLabel"><p>Notify Team of<br/>PTW Expiry</p></span></div></foreignObject></g></g><g transform="translate(145.7578125, 2452.6875)" id="flowchart-ArchiveDocument-53" class="node default"><rect height="78" width="150.109375" y="-39" x="-75.0546875" style="" class="basic label-container"></rect><g transform="translate(-45.0546875, -24)" style="" class="label"><rect></rect><foreignObject height="48" width="90.109375"><div style="display: table-cell; white-space: nowrap; line-height: 1.5; max-width: 200px; text-align: center;" xmlns="http://www.w3.org/1999/xhtml"><span class="nodeLabel"><p>Archive PTW<br/>Document</p></span></div></foreignObject></g></g><g transform="translate(145.7578125, 2586.1875)" id="flowchart-End-55" class="node default"><rect height="39" width="50.984375" y="-19.5" x="-25.4921875" ry="19.5" rx="19.5" style="" class="basic label-container"></rect><g transform="translate(-13.1171875, -12)" style="" class="label"><rect></rect><foreignObject height="24" width="26.234375"><div style="display: table-cell; white-space: nowrap; line-height: 1.5; max-width: 200px; text-align: center;" xmlns="http://www.w3.org/1999/xhtml"><span class="nodeLabel"><p>End</p></span></div></foreignObject></g></g></g></g></g></svg>